PathFileType	4	(X/Y/Z)	Patient4_TMGait_0pt3_03_right_07.trc.trc
DataRate	CameraRate	NumFrames	NumMarkers	Units	OrigDataRate	OrigDataStartFrame	OrigNumFrames
50.724637681159	50.724637681159	4	33	mm	50.724637681159	53	       141
Frame#	Time	Sacral			L.Shoulder			Chest			R.Shoulder			Neck			R.ASIS			L.ASIS			R.Thigh.Superior			R.Thigh.Lateral			R.Thigh.Inferior			R.Patella			L.Thigh.Superior			L.Thigh.Lateral			L.Thigh.Inferior			L.Patella			L.Shank.Superior			L.Shank.Lateral			L.Shank.Inferior			R.Shank.Superior			R.Shank.Lateral			R.Shank.Inferior			R.Heel			R.Midfoot.Superior			R.Midfoot.Lateral			R.Toe			L.Heel			L.Midfoot.Lateral			L.Midfoot.Superior			L.Toe			L.Elbow			L.Wrist			R.Elbow			R.Wrist			
		X1	Y1	Z1	X2	Y2	Z2	X3	Y3	Z3	X4	Y4	Z4	X5	Y5	Z5	X6	Y6	Z6	X7	Y7	Z7	X8	Y8	Z8	X9	Y9	Z9	X10	Y10	Z10	X11	Y11	Z11	X12	Y12	Z12	X13	Y13	Z13	X14	Y14	Z14	X15	Y15	Z15	X16	Y16	Z16	X17	Y17	Z17	X18	Y18	Z18	X19	Y19	Z19	X20	Y20	Z20	X21	Y21	Z21	X22	Y22	Z22	X23	Y23	Z23	X24	Y24	Z24	X25	Y25	Z25	X26	Y26	Z26	X27	Y27	Z27	X28	Y28	Z28	X29	Y29	Z29	X30	Y30	Z30	X31	Y31	Z31	X32	Y32	Z32	X33	Y33	Z33	

53	14.215142857143	753.603997112120	997.254175576059	581.495056010283	933.903992437010	1425.236953307717	397.692719000794	1036.314480323798	1357.889209291798	558.829080811534	954.861802583584	1431.115712420247	733.512593719779	916.868437413413	1488.220881921461	556.017689193013	986.216354073042	932.493649577273	694.470266117615	967.569275661370	957.628232159003	422.278280467334	1032.177185522929	734.741380508794	652.873696733625	954.153508175534	618.577061412042	703.971190194666	1032.716747368058	573.181413998492	620.851357418205	1034.671303356203	478.849987787050	621.990198569425	1049.040495966714	773.008790514373	450.895123991580	1008.310505053596	648.344013075980	365.104870968240	1107.976998658205	586.152212899634	431.210071158273	1124.852192781576	501.780049882946	417.697843916032	1070.711334139154	432.943339002123	400.373156126803	941.656893561811	363.435063184467	351.044416407518	965.548328177237	229.492749565507	389.569596380008	991.427357685214	392.101725231647	622.012719100414	907.452529709945	294.721238536158	679.480942158757	934.220216409398	200.534181080707	608.197431427020	779.134842804319	45.101757217007	573.251492205066	953.218071077448	96.942340520770	607.204785746694	863.892942743252	37.534268142981	645.534073107302	1072.019981354992	41.338747659553	630.999945818165	802.557176225528	110.900843509395	427.527852934428	862.966812283126	95.631320635230	338.353576347684	963.074218140774	129.770293860614	356.089940490582	1065.357983445225	50.162005887505	305.963881078697	892.599237232241	1069.417856854529	294.073875051316	942.041071188860	813.043860400143	301.859864172312	989.236858496833	1086.873017227444	865.963692338384	1199.129690499280	935.625194272250	889.040696526468	
54	14.234857142857	752.581733241797	996.375307305029	584.027692354025	930.084406965626	1424.958635441271	399.349105527511	1034.464068180822	1357.318776810728	559.146876473485	955.001768416858	1430.045580050399	734.963505126792	914.950116243170	1487.609238156709	557.934168920188	985.857018790212	932.055375855807	695.228335846066	965.291489323781	956.957580963357	423.092069186408	1030.689292953216	733.961684967022	653.699935157151	952.655508084584	617.812181057760	705.226827500856	1030.877858210704	572.276601126732	621.928325131672	1032.359296171349	477.639267898022	623.230512112055	1047.123350732874	773.491677929892	450.835598479539	1007.054245538563	648.797963163658	364.455571029012	1107.680113276611	587.682740339013	429.732036038209	1126.464293494091	504.839009098916	416.062323059151	1075.763029980726	434.739176411201	398.989558068624	950.809646886188	357.985500447970	349.948076557737	982.582664255161	225.391188940286	388.481048732608	988.178987609041	391.016453350252	622.964913082144	903.182366634512	294.326539629529	680.168564931696	929.285598278098	200.071018284026	608.745870655892	773.196393634654	45.184594363164	573.335865657000	947.398316354677	96.870032843232	607.241120597822	857.961306478806	37.496023093600	645.591943828132	1066.076495134739	41.305565840536	631.002439129202	826.687916033909	97.600671221059	427.011867218483	887.815350331194	85.466644672395	337.755503451181	986.024656652433	125.309698557780	355.142672000036	1092.718197625389	51.442950943578	305.177412771692	874.665613178011	1071.446195872515	295.955367143587	907.686264818420	812.387348530207	304.762805682859	1000.836772292112	1086.652190412293	865.350832850466	1220.669669608941	950.043180389979	884.278993669256	
55	14.254571428571	751.563273879698	995.670382566378	586.239348715743	926.257452132133	1424.941285642856	400.864024017576	1032.594529687164	1356.901101017286	559.247191376008	955.157563297957	1429.093758286074	736.183512268626	913.035347002624	1487.149327855303	559.689181344237	985.450055637030	931.774150822342	695.659404182662	963.051517073466	956.421897227032	423.558353315156	1028.963940319138	733.245030275829	654.339704964747	950.785691736547	617.190483798046	706.322743267418	1028.613304003927	571.429515092142	622.857663205411	1029.545763764151	476.563084478428	624.331117145566	1044.970989819776	773.812867964316	450.571863127028	1005.345357595558	649.120557073009	363.627601201096	1106.732605567909	588.867170608450	428.154672990028	1127.273369486232	507.682049015339	414.411013393668	1080.094078769180	436.552166472424	397.548308319456	959.799198069077	352.788618067715	348.391352627460	999.182669804327	221.987729567047	387.094006051185	984.538114296305	390.056382155393	623.815343869249	898.641362887844	294.004300385300	680.773788258500	924.169095697750	199.675570597364	609.256928668955	767.244583741017	45.279162717966	573.426233647629	941.525800332018	96.770198583517	607.229827425404	852.023640190395	37.455908989130	645.655208217464	1060.123217474835	41.289217135854	630.998772395838	850.685235900887	85.701427454267	425.733736219829	912.635108297627	76.430875739108	336.641689833942	1008.653609127821	121.665034011858	353.950435304209	1119.383464385623	53.395506628376	304.646016455438	857.186583888997	1074.368990231102	297.556856188411	875.236019490487	813.901455222233	307.544735900563	1012.399590347030	1086.997672412689	864.380730275465	1241.084485842996	965.665117809016	878.862482960797	
56	14.274285714286	750.553896083297	995.188438396999	588.124449423267	922.423636937549	1425.209072995255	402.211121842452	1030.710236435918	1356.697772088255	559.115865014013	955.330677914572	1428.339815147543	737.147801030964	911.119276996246	1486.886371694294	561.253247808044	985.018426376443	931.676787401721	695.757479836476	960.868535066806	956.089809748272	423.682536967438	1027.015094489831	732.614503362861	654.777814428568	948.534360491123	616.748246413110	707.228932433282	1025.904425316436	570.665926972498	623.617855888657	1026.205236041392	475.654449382048	625.264026620893	1042.649582030105	774.038491616003	450.095353820755	1003.237118282656	649.358725884911	362.651206261658	1105.209891017099	589.743646186750	426.500004369356	1127.324435621055	510.314518919211	412.790492436287	1083.681785149828	438.414693611896	396.109455879212	968.502662806569	348.023163526190	346.477417223479	1015.094261255486	219.411919716488	385.518847810697	980.492289749661	389.264684278180	624.548797271272	893.824752176144	293.780623463732	681.288253008383	918.876082621167	199.370783919887	609.722493794494	761.283989669811	45.394376440036	573.522067855672	935.611040260080	96.652556091188	607.183607644711	846.083032716890	37.419358094580	645.720593362647	1054.163587173728	41.280552090077	630.991745728598	874.146673537748	75.415173420960	423.863774312631	937.021170825369	68.749585523940	335.158077352284	1030.602878280097	119.005943969005	352.627674318312	1144.978762855566	56.146379781352	304.435053748399	840.393771813343	1078.082721820356	298.948481148906	844.993523319882	817.193435337281	310.205135724303	1023.841280576990	1088.005408706194	863.108038508027	1260.179447740334	982.378715287205	872.907126823528	
